# Blender v2.79 (sub 0) OBJ File: ''
# www.blender.org
mtllib mecharms2.mtl
o Arms.007
v 24.473740 -9.014379 99.257584
v 26.627264 -7.524742 99.941856
v 26.005011 -4.975469 95.019547
v 28.364126 -5.815125 99.751816
v 29.982241 -5.279887 98.565331
v 31.517944 -6.716530 96.483864
v 31.585978 -6.751725 93.624542
v 30.380693 -6.224401 91.112343
v 28.153551 -5.385569 89.580544
v 25.803137 -4.460534 89.689407
v 23.798742 -4.751569 90.196251
v 22.194002 -5.541609 91.285721
v 21.209713 -7.376568 92.676514
v 21.425810 -8.695797 95.051506
v 22.568413 -9.345633 97.408440
vt 0.209534 0.441463
vt 0.224051 0.433604
vt 0.238507 0.464533
vt 0.238845 0.431766
vt 0.251217 0.434442
vt 0.267466 0.442313
vt 0.274798 0.458146
vt 0.273569 0.475401
vt 0.264005 0.489775
vt 0.249641 0.495383
vt 0.237016 0.496989
vt 0.224546 0.494254
vt 0.210913 0.487370
vt 0.203306 0.472590
vt 0.202433 0.456154
vn -0.5414 0.0626 0.8385
vn -0.2939 0.2287 0.9281
vn -0.1830 0.9524 0.2437
vn -0.0062 0.5867 0.8098
vn 0.5046 0.7677 0.3950
vn 0.9092 0.3653 0.2000
vn 0.8690 0.4886 -0.0779
vn 0.6973 0.5793 -0.4221
vn 0.4269 0.6219 -0.6565
vn 0.0116 0.8510 -0.5250
vn -0.4366 0.7662 -0.4714
vn -0.7562 0.6260 -0.1905
vn -0.9818 0.1807 -0.0580
vn -0.9672 0.0868 0.2388
vn -0.8317 0.0407 0.5537
usemtl Material.000001
s 1
f 1/1/1 2/2/2 3/3/3
f 2/2/2 4/4/4 3/3/3
f 4/4/4 5/5/5 3/3/3
f 5/5/5 6/6/6 3/3/3
f 6/6/6 7/7/7 3/3/3
f 7/7/7 8/8/8 3/3/3
f 8/8/8 9/9/9 3/3/3
f 9/9/9 10/10/10 3/3/3
f 10/10/10 11/11/11 3/3/3
f 11/11/11 12/12/12 3/3/3
f 12/12/12 13/13/13 3/3/3
f 13/13/13 14/14/14 3/3/3
f 14/14/14 15/15/15 3/3/3
f 15/15/15 1/1/1 3/3/3
o Arms.006
v 27.202053 -11.065969 93.768661
v 27.276955 -11.217505 95.905136
v 26.362997 -11.357111 95.720619
v 25.623049 -11.382984 95.149872
v 25.185389 -11.295872 94.317146
v 25.122301 -11.116877 93.392426
v 25.445280 -10.879224 92.547180
v 26.138889 -10.623142 91.961372
v 27.027866 -10.403979 91.737770
v 27.941822 -10.264374 91.922279
v 28.681772 -10.238502 92.493027
v 29.119431 -10.325614 93.325760
v 29.182518 -10.504610 94.250473
v 28.859537 -10.742263 95.095718
v 28.165930 -10.998343 95.681526
v 25.532967 -10.993593 97.501648
v 27.221735 -10.735637 97.842590
v 24.165716 -11.041402 96.447044
v 23.357025 -10.880439 94.908363
v 23.240458 -10.549694 93.199715
v 23.837242 -10.110571 91.637901
v 25.118868 -9.637395 90.555466
v 26.761482 -9.232435 90.142303
v 28.450253 -8.974477 90.483246
v 29.817501 -8.926671 91.537849
v 30.626192 -9.087633 93.076530
v 30.742758 -9.418377 94.785179
v 30.145973 -9.857501 96.346992
v 28.864349 -10.330676 97.429428
v 24.814966 -9.910666 98.865448
v 27.021448 -9.573627 99.310913
v 23.028566 -9.973129 97.487541
v 21.971962 -9.762820 95.477158
v 21.819660 -9.330684 93.244705
v 22.599394 -8.756942 91.204094
v 24.273914 -8.138707 89.789825
v 26.420092 -7.609601 89.250000
v 28.626575 -7.272563 89.695457
v 30.412975 -7.210100 91.073364
v 31.469582 -7.420408 93.083748
v 31.621883 -7.852544 95.316200
v 30.842148 -8.426288 97.356819
v 29.167627 -9.044521 98.771088
v 24.473740 -9.014379 99.257584
v 26.627264 -7.524742 99.941856
v 22.568413 -9.345633 97.408440
v 21.425810 -8.695797 95.051506
v 21.209713 -7.376568 92.676514
v 22.288107 -6.795714 90.882385
v 23.982771 -6.214896 89.667938
v 26.039339 -5.720129 89.209869
v 28.153551 -5.385569 89.580544
v 30.380693 -6.224401 91.112343
v 31.585978 -6.751725 93.624542
v 31.517944 -6.716530 96.483864
v 30.471989 -6.763211 98.401260
v 28.780153 -7.344472 99.631340
v 22.194002 -5.541609 91.285721
v 23.798742 -4.751569 90.196251
v 25.803137 -4.460534 89.689407
v 29.982241 -5.279887 98.565331
v 28.364126 -5.815125 99.751816
vt 0.204761 0.385000
vt 0.218547 0.391991
vt 0.214259 0.397408
vt 0.208014 0.400162
vt 0.201105 0.399894
vt 0.194960 0.396798
vt 0.190712 0.391481
vt 0.189394 0.384710
vt 0.190981 0.378013
vt 0.195212 0.372645
vt 0.201347 0.369846
vt 0.208192 0.370016
vt 0.214361 0.373029
vt 0.218693 0.378340
vt 0.220099 0.385192
vt 0.223640 0.408900
vt 0.231816 0.398212
vt 0.211259 0.414488
vt 0.197454 0.413986
vt 0.185402 0.407818
vt 0.177382 0.397438
vt 0.174895 0.384548
vt 0.177799 0.371774
vt 0.185767 0.361292
vt 0.197750 0.355577
vt 0.211405 0.355784
vt 0.223597 0.361708
vt 0.231858 0.372062
vt 0.234579 0.385141
vt 0.232939 0.419135
vt 0.244396 0.403203
vt 0.214317 0.427752
vt 0.193584 0.426973
vt 0.175971 0.417650
vt 0.165084 0.402511
vt 0.161722 0.384445
vt 0.165559 0.366549
vt 0.176414 0.351372
vt 0.193912 0.342482
vt 0.214582 0.342614
vt 0.232709 0.351490
vt 0.243997 0.366580
vt 0.247748 0.384934
vt 0.237951 0.424758
vt 0.260726 0.407176
vt 0.212385 0.432888
vt 0.185589 0.432343
vt 0.159144 0.421114
vt 0.150459 0.401780
vt 0.148199 0.381794
vt 0.152472 0.362203
vt 0.162994 0.344006
vt 0.191458 0.335818
vt 0.219386 0.338561
vt 0.246027 0.350086
vt 0.258430 0.366744
vt 0.261426 0.386399
vt 0.140592 0.403198
vt 0.136452 0.381122
vt 0.142480 0.359571
vt 0.270283 0.364723
vt 0.273469 0.385851
vn 0.1871 -0.9620 -0.1990
vn 0.1963 -0.9749 0.1054
vn 0.0629 -0.9949 0.0786
vn -0.0479 -0.9988 -0.0039
vn -0.1101 -0.9869 -0.1182
vn -0.1174 -0.9628 -0.2434
vn -0.0668 -0.9280 -0.3666
vn 0.0357 -0.8906 -0.4534
vn 0.1605 -0.8597 -0.4849
vn 0.2938 -0.8390 -0.4579
vn 0.4044 -0.8341 -0.3752
vn 0.4664 -0.8453 -0.2607
vn 0.4739 -0.8700 -0.1357
vn 0.4235 -0.9058 -0.0127
vn 0.3212 -0.9441 0.0739
vn -0.0963 -0.9080 0.4077
vn 0.1825 -0.8663 0.4649
vn -0.3277 -0.9150 0.2353
vn -0.4579 -0.8890 -0.0043
vn -0.4739 -0.8391 -0.2672
vn -0.3675 -0.7679 -0.5247
vn -0.1547 -0.6895 -0.7076
vn 0.1075 -0.6248 -0.7733
vn 0.3861 -0.5818 -0.7158
vn 0.6166 -0.5705 -0.5425
vn 0.7462 -0.5931 -0.3023
vn 0.7626 -0.6456 -0.0399
vn 0.6573 -0.7218 0.2165
vn 0.4448 -0.8018 0.3991
vn -0.2680 -0.6482 0.7128
vn 0.1367 -0.5376 0.8320
vn -0.5979 -0.6198 0.5083
vn -0.8020 -0.5719 0.1727
vn -0.8187 -0.5263 -0.2296
vn -0.6745 -0.4258 -0.6031
vn -0.3578 -0.3293 -0.8738
vn 0.0238 -0.2443 -0.9694
vn 0.4313 -0.1772 -0.8847
vn 0.7589 -0.1611 -0.6309
vn 0.9367 -0.1505 -0.3162
vn 0.9716 -0.2276 0.0651
vn 0.8247 -0.3525 0.4422
vn 0.5017 -0.4803 0.7195
vn -0.5414 0.0626 0.8384
vn -0.2939 0.2287 0.9281
vn -0.8317 0.0407 0.5537
vn -0.9672 0.0868 0.2387
vn -0.9818 0.1807 -0.0580
vn -0.7242 -0.0543 -0.6875
vn -0.4216 0.0617 -0.9047
vn -0.0562 0.1573 -0.9860
vn 0.4269 0.6219 -0.6565
vn 0.6973 0.5792 -0.4222
vn 0.8690 0.4886 -0.0779
vn 0.9092 0.3652 0.2000
vn 0.7620 -0.0254 0.6471
vn 0.3954 -0.1728 0.9021
vn -0.7562 0.6260 -0.1905
vn -0.4366 0.7663 -0.4714
vn 0.0117 0.8510 -0.5250
vn 0.5046 0.7677 0.3950
vn -0.0062 0.5866 0.8098
usemtl Material.000001
s 1
f 16/16/16 17/17/17 18/18/18
f 16/16/16 18/18/18 19/19/19
f 16/16/16 19/19/19 20/20/20
f 16/16/16 20/20/20 21/21/21
f 16/16/16 21/21/21 22/22/22
f 16/16/16 22/22/22 23/23/23
f 16/16/16 23/23/23 24/24/24
f 16/16/16 24/24/24 25/25/25
f 16/16/16 25/25/25 26/26/26
f 16/16/16 26/26/26 27/27/27
f 16/16/16 27/27/27 28/28/28
f 16/16/16 28/28/28 29/29/29
f 16/16/16 29/29/29 30/30/30
f 16/16/16 30/30/30 17/17/17
f 31/31/31 18/18/18 17/17/17
f 17/17/17 32/32/32 31/31/31
f 33/33/33 19/19/19 18/18/18
f 18/18/18 31/31/31 33/33/33
f 34/34/34 20/20/20 19/19/19
f 19/19/19 33/33/33 34/34/34
f 35/35/35 21/21/21 20/20/20
f 20/20/20 34/34/34 35/35/35
f 36/36/36 22/22/22 21/21/21
f 21/21/21 35/35/35 36/36/36
f 37/37/37 23/23/23 22/22/22
f 22/22/22 36/36/36 37/37/37
f 38/38/38 24/24/24 23/23/23
f 23/23/23 37/37/37 38/38/38
f 39/39/39 25/25/25 24/24/24
f 24/24/24 38/38/38 39/39/39
f 40/40/40 26/26/26 25/25/25
f 25/25/25 39/39/39 40/40/40
f 41/41/41 27/27/27 26/26/26
f 26/26/26 40/40/40 41/41/41
f 42/42/42 28/28/28 27/27/27
f 27/27/27 41/41/41 42/42/42
f 43/43/43 29/29/29 28/28/28
f 28/28/28 42/42/42 43/43/43
f 44/44/44 30/30/30 29/29/29
f 29/29/29 43/43/43 44/44/44
f 32/32/32 17/17/17 30/30/30
f 30/30/30 44/44/44 32/32/32
f 45/45/45 31/31/31 32/32/32
f 32/32/32 46/46/46 45/45/45
f 47/47/47 33/33/33 31/31/31
f 31/31/31 45/45/45 47/47/47
f 48/48/48 34/34/34 33/33/33
f 33/33/33 47/47/47 48/48/48
f 49/49/49 35/35/35 34/34/34
f 34/34/34 48/48/48 49/49/49
f 50/50/50 36/36/36 35/35/35
f 35/35/35 49/49/49 50/50/50
f 51/51/51 37/37/37 36/36/36
f 36/36/36 50/50/50 51/51/51
f 52/52/52 38/38/38 37/37/37
f 37/37/37 51/51/51 52/52/52
f 53/53/53 39/39/39 38/38/38
f 38/38/38 52/52/52 53/53/53
f 54/54/54 40/40/40 39/39/39
f 39/39/39 53/53/53 54/54/54
f 55/55/55 41/41/41 40/40/40
f 40/40/40 54/54/54 55/55/55
f 56/56/56 42/42/42 41/41/41
f 41/41/41 55/55/55 56/56/56
f 57/57/57 43/43/43 42/42/42
f 42/42/42 56/56/56 57/57/57
f 58/58/58 44/44/44 43/43/43
f 43/43/43 57/57/57 58/58/58
f 46/46/46 32/32/32 44/44/44
f 44/44/44 58/58/58 46/46/46
f 59/59/59 45/45/45 46/46/46
f 46/46/46 60/60/60 59/59/59
f 61/61/61 47/47/47 45/45/45
f 45/45/45 59/59/59 61/61/61
f 62/62/62 48/48/48 47/47/47
f 47/47/47 61/61/61 62/62/62
f 63/63/63 49/49/49 48/48/48
f 48/48/48 62/62/62 63/63/63
f 64/64/64 50/50/50 49/49/49
f 49/49/49 63/63/63 64/64/64
f 65/65/65 51/51/51 50/50/50
f 50/50/50 64/64/64 65/65/65
f 66/66/66 52/52/52 51/51/51
f 51/51/51 65/65/65 66/66/66
f 67/67/67 53/53/53 52/52/52
f 52/52/52 66/66/66 67/67/67
f 68/68/68 54/54/54 53/53/53
f 53/53/53 67/67/67 68/68/68
f 69/69/69 55/55/55 54/54/54
f 54/54/54 68/68/68 69/69/69
f 70/70/70 56/56/56 55/55/55
f 55/55/55 69/69/69 70/70/70
f 71/71/71 57/57/57 56/56/56
f 56/56/56 70/70/70 71/71/71
f 72/72/72 58/58/58 57/57/57
f 57/57/57 71/71/71 72/72/72
f 60/60/60 46/46/46 58/58/58
f 58/58/58 72/72/72 60/60/60
f 63/63/63 73/73/73 64/64/64
f 74/74/74 65/65/65 64/64/64
f 64/64/64 73/73/73 74/74/74
f 75/75/75 66/66/66 65/65/65
f 65/65/65 74/74/74 75/75/75
f 66/66/66 75/75/75 67/67/67
f 70/70/70 76/76/76 71/71/71
f 77/77/77 72/72/72 71/71/71
f 71/71/71 76/76/76 77/77/77
f 72/72/72 77/77/77 60/60/60
o Arms.005
v 31.273788 -5.174684 96.653381
v 31.348799 -2.981037 96.753288
v 30.871704 -3.547402 92.813004
v 31.089935 -0.981786 95.601204
v 30.322708 0.016309 93.799553
v 29.004696 -0.140187 92.050758
v 27.831985 -1.642332 90.820290
v 27.823076 -3.693471 90.048714
v 29.082527 -5.440873 89.925507
v 30.807804 -6.440533 90.901382
v 31.843925 -6.839486 92.601456
v 31.971821 -6.583649 94.975487
vt 0.744347 0.728956
vt 0.736346 0.712560
vt 0.769524 0.703761
vt 0.738576 0.693386
vt 0.749412 0.678685
vt 0.765492 0.670076
vt 0.784238 0.672009
vt 0.798072 0.683828
vt 0.801935 0.701324
vt 0.797232 0.720609
vt 0.783371 0.732875
vt 0.762287 0.735551
vn -0.4271 -0.4324 0.7941
vn -0.4045 0.1447 0.9030
vn -0.8645 -0.2723 0.4224
vn -0.5096 0.4613 0.7263
vn -0.6582 0.5506 0.5135
vn -0.7830 0.5564 0.2781
vn -0.9658 0.2567 0.0357
vn -0.9529 -0.2588 -0.1582
vn -0.6398 -0.7315 -0.2358
vn -0.4914 -0.8700 -0.0408
vn -0.3721 -0.9174 0.1413
vn -0.1961 -0.8966 0.3970
usemtl Material.000001
s 1
f 78/78/78 79/79/79 80/80/80
f 79/79/79 81/81/81 80/80/80
f 81/81/81 82/82/82 80/80/80
f 82/82/82 83/83/83 80/80/80
f 83/83/83 84/84/84 80/80/80
f 84/84/84 85/85/85 80/80/80
f 85/85/85 86/86/86 80/80/80
f 86/86/86 87/87/87 80/80/80
f 87/87/87 88/88/88 80/80/80
f 88/88/88 89/89/89 80/80/80
f 89/89/89 78/78/78 80/80/80
o Arms.004
v 32.854424 -6.202893 94.268394
v 31.971821 -6.583649 94.975487
v 31.843925 -6.839486 92.601456
v 35.109482 -5.725154 92.781929
v 34.306953 -6.322264 90.846199
v 38.679886 -4.916522 90.725258
v 37.860855 -5.565879 88.807762
v 42.712723 -3.802489 86.027702
v 44.634796 -2.930117 84.788933
v 45.332996 -2.496797 86.260201
v 43.462845 -3.247737 87.677719
v 40.549675 -4.631802 87.271950
v 41.346184 -4.026325 89.052902
v 32.895924 -4.763298 95.724380
v 31.273788 -5.174684 96.653381
v 35.447018 -4.106850 94.231438
v 38.924503 -3.287352 92.166771
v 45.628597 -1.280211 87.388229
v 43.744560 -1.830575 88.913269
v 41.631809 -2.496822 90.383392
v 31.348799 -2.981037 96.753288
v 33.011894 -2.508254 95.889656
v 35.376392 -2.044091 94.621361
v 38.499043 -1.239058 92.723206
v 45.430927 0.337128 87.822571
v 43.480301 -0.032228 89.358284
v 41.329090 -0.557498 90.857208
v 32.567692 -0.584938 94.832962
v 31.089935 -0.981786 95.601204
v 35.029320 -0.142517 93.665359
v 37.564785 0.556917 92.102234
v 44.789055 1.805893 87.382988
v 42.737137 1.546073 88.780373
v 40.504238 1.136184 90.239395
v 31.750660 0.576484 93.174385
v 30.322708 0.016309 93.799553
v 34.174347 1.141364 91.897446
v 36.391109 1.634166 90.568306
v 43.913837 2.690343 86.236542
v 41.731102 2.499448 87.434517
v 39.421436 2.152525 88.787529
v 29.004696 -0.140187 92.050758
v 30.452154 0.437210 91.259392
v 32.854595 1.083136 89.934128
v 35.339794 1.576734 88.606796
v 43.088959 2.723737 84.764519
v 40.800720 2.465081 85.732216
v 38.434345 2.109130 86.952049
v 27.831985 -1.642332 90.820290
v 29.432676 -1.048672 89.828873
v 31.943094 -0.401445 88.346703
v 34.815536 0.503838 86.837044
v 42.547527 1.931572 83.400131
v 40.240543 1.534672 84.246918
v 37.847763 1.099403 85.344345
v 27.823076 -3.693471 90.048714
v 29.169662 -3.276038 89.183846
v 31.626549 -1.983175 87.611427
v 34.947983 -1.406611 85.872604
v 42.522114 0.433381 82.621689
v 40.271313 -0.150044 83.446724
v 37.900402 -0.717151 84.478210
v 29.082527 -5.440873 89.925507
v 27.823076 -3.693471 90.048714
v 29.169662 -3.276038 89.183846
v 30.116394 -5.096864 89.495071
v 31.626549 -1.983175 87.611427
v 32.169243 -4.043807 87.971199
v 34.947983 -1.406611 85.872604
v 35.673763 -3.474665 85.904800
v 42.522114 0.433381 82.621689
v 42.967152 -1.191425 82.630356
v 40.821007 -1.969701 83.518188
v 40.271313 -0.150044 83.446724
v 38.506096 -2.673007 84.558022
v 37.900402 -0.717151 84.478210
v 30.807804 -6.440533 90.901382
v 33.207527 -5.740326 89.068230
v 36.739494 -5.028759 87.010689
v 43.753799 -2.443958 83.437294
v 41.729443 -3.326488 84.479462
v 39.492363 -4.127764 85.598557
vt 0.301568 0.901618
vt 0.313596 0.899760
vt 0.303331 0.922760
vt 0.280343 0.903640
vt 0.279083 0.926151
vt 0.244882 0.902814
vt 0.243485 0.924908
vt 0.192801 0.922075
vt 0.174559 0.922406
vt 0.175434 0.901475
vt 0.193745 0.900798
vt 0.215426 0.923555
vt 0.216569 0.901797
vt 0.305195 0.881051
vt 0.323331 0.879485
vt 0.281036 0.881303
vt 0.246349 0.880777
vt 0.176282 0.880328
vt 0.194669 0.879463
vt 0.217701 0.880120
vt 0.319319 0.858145
vt 0.300555 0.858517
vt 0.280043 0.859301
vt 0.248157 0.858653
vt 0.177085 0.859107
vt 0.195531 0.858080
vt 0.218697 0.858389
vt 0.295728 0.836347
vt 0.312972 0.835845
vt 0.276152 0.837944
vt 0.249305 0.836780
vt 0.177559 0.838238
vt 0.195967 0.837011
vt 0.219232 0.836889
vt 0.292053 0.814679
vt 0.309253 0.813952
vt 0.272925 0.815350
vt 0.249532 0.814295
vt 0.177767 0.817309
vt 0.196154 0.815651
vt 0.219376 0.814852
vt 0.311868 0.792270
vt 0.294030 0.791673
vt 0.274180 0.791527
vt 0.249045 0.791458
vt 0.177556 0.796907
vt 0.195849 0.794435
vt 0.218963 0.792639
vt 0.319113 0.772048
vt 0.299628 0.769716
vt 0.277242 0.768120
vt 0.247613 0.768572
vt 0.176539 0.777488
vt 0.194638 0.773713
vt 0.217764 0.770527
vt 0.322717 0.752404
vt 0.306509 0.747920
vt 0.280368 0.748883
vt 0.245541 0.744887
vt 0.173388 0.758887
vt 0.191185 0.753151
vt 0.214869 0.747939
vt 0.308800 0.965873
vt 0.316572 0.983572
vt 0.300178 0.985685
vt 0.296897 0.965557
vt 0.276301 0.994767
vt 0.277001 0.971691
vt 0.241430 0.994012
vt 0.241407 0.970326
vt 0.168438 0.981043
vt 0.171873 0.962515
vt 0.190166 0.964230
vt 0.186803 0.984782
vt 0.212963 0.967861
vt 0.210547 0.990466
vt 0.301631 0.945234
vt 0.277725 0.948849
vt 0.242251 0.947310
vt 0.173537 0.942873
vt 0.191762 0.943247
vt 0.214301 0.945535
vn 0.4991 -0.7887 0.3591
vn -0.1962 -0.8966 0.3971
vn -0.3721 -0.9174 0.1413
vn 0.4229 -0.8187 0.3884
vn 0.1678 -0.9824 -0.0817
vn 0.4553 -0.7991 0.3926
vn 0.2184 -0.9719 -0.0875
vn 0.3045 -0.9413 -0.1454
vn 0.7713 -0.4488 -0.4513
vn 0.9263 -0.3516 -0.1353
vn 0.5316 -0.7756 0.3404
vn 0.2779 -0.9529 -0.1214
vn 0.5052 -0.7837 0.3613
vn 0.5402 -0.3459 0.7672
vn -0.4270 -0.4324 0.7941
vn 0.5401 -0.3966 0.7423
vn 0.5576 -0.3773 0.7394
vn 0.9909 -0.0926 0.0981
vn 0.6255 -0.3603 0.6920
vn 0.5953 -0.3671 0.7147
vn -0.4045 0.1447 0.9030
vn 0.4057 0.2253 0.8858
vn 0.4640 0.1744 0.8685
vn 0.4890 0.1894 0.8515
vn 0.9483 0.2569 0.1862
vn 0.5503 0.1979 0.8112
vn 0.5172 0.1960 0.8331
vn 0.1865 0.6941 0.6953
vn -0.5096 0.4614 0.7263
vn 0.2420 0.6705 0.7013
vn 0.2581 0.6913 0.6749
vn 0.8027 0.5902 0.0855
vn 0.3185 0.6994 0.6399
vn 0.2897 0.6956 0.6575
vn -0.1084 0.9369 0.3324
vn -0.6581 0.5506 0.5135
vn -0.0297 0.9434 0.3302
vn -0.0153 0.9552 0.2956
vn 0.6290 0.7644 -0.1415
vn 0.0396 0.9635 0.2647
vn 0.0083 0.9604 0.2784
vn -0.7830 0.5564 0.2781
vn -0.3890 0.9055 -0.1698
vn -0.3275 0.9233 -0.2004
vn -0.2874 0.9402 -0.1831
vn 0.4710 0.7708 -0.4289
vn -0.2157 0.9559 -0.1992
vn -0.2505 0.9503 -0.1847
vn -0.9658 0.2567 0.0357
vn -0.5518 0.5513 -0.6257
vn -0.5183 0.6078 -0.6016
vn -0.4638 0.6405 -0.6121
vn 0.3414 0.5983 -0.7249
vn -0.3825 0.6510 -0.6556
vn -0.4244 0.6417 -0.6389
vn -0.9529 -0.2588 -0.1582
vn -0.5069 -0.0168 -0.8618
vn -0.5465 0.1056 -0.8307
vn -0.4693 0.0934 -0.8781
vn 0.3370 0.2660 -0.9032
vn -0.3926 0.1282 -0.9107
vn -0.4318 0.1135 -0.8948
vn -0.6398 -0.7315 -0.2358
vn -0.9529 -0.2589 -0.1582
vn -0.2126 -0.5603 -0.8006
vn -0.5466 0.1056 -0.8307
vn -0.3894 -0.4554 -0.8006
vn -0.4692 0.0934 -0.8781
vn -0.3413 -0.4333 -0.8341
vn 0.4216 -0.0756 -0.9036
vn -0.2443 -0.4001 -0.8833
vn -0.3927 0.1282 -0.9107
vn -0.2781 -0.4153 -0.8661
vn -0.4317 0.1135 -0.8948
vn -0.4914 -0.8700 -0.0408
vn -0.1605 -0.8287 -0.5362
vn -0.0764 -0.8360 -0.5433
vn 0.5852 -0.3461 -0.7333
vn 0.0182 -0.8007 -0.5988
vn -0.0139 -0.8154 -0.5787
usemtl Material.000001
s 1
f 90/90/90 91/91/91 92/92/92
f 93/93/93 90/90/90 92/92/92
f 92/92/92 94/94/94 93/93/93
f 95/95/95 93/93/93 94/94/94
f 94/94/94 96/96/96 95/95/95
f 97/97/97 98/98/98 99/99/99
f 99/99/99 100/100/100 97/97/97
f 101/101/101 97/97/97 100/100/100
f 100/100/100 102/102/102 101/101/101
f 96/96/96 101/101/101 102/102/102
f 102/102/102 95/95/95 96/96/96
f 103/103/103 104/104/104 91/91/91
f 103/103/103 91/91/91 90/90/90
f 105/105/105 103/103/103 90/90/90
f 90/90/90 93/93/93 105/105/105
f 106/106/106 105/105/105 93/93/93
f 93/93/93 95/95/95 106/106/106
f 100/100/100 99/99/99 107/107/107
f 107/107/107 108/108/108 100/100/100
f 102/102/102 100/100/100 108/108/108
f 108/108/108 109/109/109 102/102/102
f 95/95/95 102/102/102 109/109/109
f 109/109/109 106/106/106 95/95/95
f 110/110/110 104/104/104 103/103/103
f 103/103/103 111/111/111 110/110/110
f 112/112/112 111/111/111 103/103/103
f 103/103/103 105/105/105 112/112/112
f 113/113/113 112/112/112 105/105/105
f 105/105/105 106/106/106 113/113/113
f 108/108/108 107/107/107 114/114/114
f 114/114/114 115/115/115 108/108/108
f 109/109/109 108/108/108 115/115/115
f 115/115/115 116/116/116 109/109/109
f 106/106/106 109/109/109 116/116/116
f 116/116/116 113/113/113 106/106/106
f 117/117/117 118/118/118 110/110/110
f 110/110/110 111/111/111 117/117/117
f 119/119/119 117/117/117 111/111/111
f 111/111/111 112/112/112 119/119/119
f 120/120/120 119/119/119 112/112/112
f 112/112/112 113/113/113 120/120/120
f 115/115/115 114/114/114 121/121/121
f 121/121/121 122/122/122 115/115/115
f 116/116/116 115/115/115 122/122/122
f 122/122/122 123/123/123 116/116/116
f 113/113/113 116/116/116 123/123/123
f 123/123/123 120/120/120 113/113/113
f 124/124/124 125/125/125 118/118/118
f 118/118/118 117/117/117 124/124/124
f 126/126/126 124/124/124 117/117/117
f 117/117/117 119/119/119 126/126/126
f 127/127/127 126/126/126 119/119/119
f 119/119/119 120/120/120 127/127/127
f 121/121/121 128/128/128 129/129/129
f 129/129/129 122/122/122 121/121/121
f 123/123/123 122/122/122 129/129/129
f 129/129/129 130/130/130 123/123/123
f 120/120/120 123/123/123 130/130/130
f 130/130/130 127/127/127 120/120/120
f 131/131/131 125/125/125 124/124/124
f 124/124/124 132/132/132 131/131/131
f 132/132/132 124/124/124 126/126/126
f 126/126/126 133/133/133 132/132/132
f 133/133/133 126/126/126 127/127/127
f 127/127/127 134/134/134 133/133/133
f 128/128/128 135/135/135 136/136/136
f 136/136/136 129/129/129 128/128/128
f 129/129/129 136/136/136 137/137/137
f 137/137/137 130/130/130 129/129/129
f 130/130/130 137/137/137 134/134/134
f 134/134/134 127/127/127 130/130/130
f 138/138/138 131/131/131 132/132/132
f 132/132/132 139/139/139 138/138/138
f 139/139/139 132/132/132 133/133/133
f 133/133/133 140/140/140 139/139/139
f 140/140/140 133/133/133 134/134/134
f 134/134/134 141/141/141 140/140/140
f 135/135/135 142/142/142 143/143/143
f 143/143/143 136/136/136 135/135/135
f 136/136/136 143/143/143 144/144/144
f 144/144/144 137/137/137 136/136/136
f 137/137/137 144/144/144 141/141/141
f 141/141/141 134/134/134 137/137/137
f 145/145/145 138/138/138 139/139/139
f 139/139/139 146/146/146 145/145/145
f 146/146/146 139/139/139 140/140/140
f 140/140/140 147/147/147 146/146/146
f 147/147/147 140/140/140 141/141/141
f 141/141/141 148/148/148 147/147/147
f 142/142/142 149/149/149 150/150/150
f 150/150/150 143/143/143 142/142/142
f 143/143/143 150/150/150 151/151/151
f 151/151/151 144/144/144 143/143/143
f 144/144/144 151/151/151 148/148/148
f 148/148/148 141/141/141 144/144/144
f 152/152/152 153/153/153 154/154/146
f 155/155/154 152/152/152 154/154/146
f 155/155/154 154/154/146 156/156/155
f 156/156/155 157/157/156 155/155/154
f 157/157/156 156/156/155 158/158/157
f 158/158/157 159/159/158 157/157/156
f 160/160/149 161/161/159 162/162/160
f 162/162/160 163/163/161 160/160/149
f 163/163/161 162/162/160 164/164/162
f 164/164/162 165/165/163 163/163/161
f 165/165/163 164/164/162 159/159/158
f 159/159/158 158/158/157 165/165/163
f 166/166/164 152/152/152 155/155/154
f 166/166/164 155/155/154 157/157/156
f 157/157/156 167/167/165 166/166/164
f 167/167/165 157/157/156 159/159/158
f 159/159/158 168/168/166 167/167/165
f 161/161/159 169/169/167 170/170/168
f 170/170/168 162/162/160 161/161/159
f 162/162/160 170/170/168 171/171/169
f 171/171/169 164/164/162 162/162/160
f 164/164/162 171/171/169 168/168/166
f 168/168/166 159/159/158 164/164/162
f 94/94/94 92/92/92 166/166/164
f 166/166/164 167/167/165 94/94/94
f 96/96/96 94/94/94 167/167/165
f 167/167/165 168/168/166 96/96/96
f 169/169/167 98/98/98 97/97/97
f 97/97/97 170/170/168 169/169/167
f 171/171/169 170/170/168 97/97/97
f 97/97/97 101/101/101 171/171/169
f 168/168/166 171/171/169 101/101/101
f 101/101/101 96/96/96 168/168/166
o Arms.003
v 45.332996 -2.496797 86.260201
v 44.634796 -2.930117 84.788933
v 43.344887 -0.060745 85.497444
v 43.753799 -2.443958 83.437294
v 42.967152 -1.191425 82.630356
v 42.522114 0.433381 82.621689
v 42.547527 1.931572 83.400131
v 43.088959 2.723737 84.764519
v 43.913837 2.690343 86.236542
v 44.789055 1.805893 87.382988
v 45.430927 0.337128 87.822571
v 45.628597 -1.280211 87.388229
vt 0.422616 0.635208
vt 0.406037 0.636351
vt 0.412496 0.607228
vt 0.391452 0.628390
vt 0.383447 0.613830
vt 0.384539 0.597253
vt 0.394239 0.583719
vt 0.409895 0.578676
vt 0.426139 0.582290
vt 0.438163 0.593854
vt 0.441949 0.609801
vt 0.435971 0.625318
vn 0.9263 -0.3516 -0.1353
vn 0.7713 -0.4487 -0.4513
vn 0.8556 0.2169 -0.4700
vn 0.5852 -0.3461 -0.7333
vn 0.4216 -0.0756 -0.9036
vn 0.3370 0.2659 -0.9032
vn 0.3414 0.5983 -0.7249
vn 0.4711 0.7708 -0.4289
vn 0.6291 0.7643 -0.1415
vn 0.8027 0.5902 0.0855
vn 0.9483 0.2569 0.1862
vn 0.9909 -0.0925 0.0981
usemtl Material.000001
s 1
f 172/172/170 173/173/171 174/174/172
f 173/173/171 175/175/173 174/174/172
f 175/175/173 176/176/174 174/174/172
f 176/176/174 177/177/175 174/174/172
f 177/177/175 178/178/176 174/174/172
f 178/178/176 179/179/177 174/174/172
f 179/179/177 180/180/178 174/174/172
f 180/180/178 181/181/179 174/174/172
f 181/181/179 182/182/180 174/174/172
f 182/182/180 183/183/181 174/174/172
f 183/183/181 172/172/170 174/174/172
